<svg width="20" height="20" viewBox="0 0 20 20" fill="none" xmlns="http://www.w3.org/2000/svg">
<path d="M13.6 2c.073.89-.243 1.77-.78 2.42-.537.65-1.38 1.16-2.22 1.09-.094-.85.273-1.747.776-2.352C11.91 2.534 12.8 2.063 13.6 2z" fill="currentColor"></path>
<path d="M16.5 13.55c-.37.81-.547 1.172-.984 1.888-.638 1.03-1.538 2.31-2.654 2.322-.99.01-1.245-.645-2.588-.638-1.343.008-1.624.65-2.62.64-1.115-.012-1.965-1.17-2.603-2.2C3.254 13.225 3.003 10.4 3.968 8.845c.69-1.12 1.778-1.774 2.8-1.774 1.042 0 1.696.64 2.558.64.835 0 1.343-.642 2.546-.642 1.01 0 1.963.55 2.65 1.503-2.33 1.277-1.952 4.61.978 5.978z" fill="currentColor"></path>
</svg>