<svg width="20" height="20" viewBox="0 0 20 20" fill="none" xmlns="http://www.w3.org/2000/svg">
<path d="M18.333 14.1v2.5a1.667 1.667 0 0 1-1.817 1.667 16.492 16.492 0 0 1-7.192-2.558A16.25 16.25 0 0 1 3.908 10a16.492 16.492 0 0 1-2.558-7.225A1.667 1.667 0 0 1 3 0.833h2.5a1.667 1.667 0 0 1 1.667 1.433 10.7 10.7 0 0 0 0.583 2.342 1.667 1.667 0 0 1-.375 1.758L6.592 7.083a13.333 13.333 0 0 0 5 5l.8-.8a1.667 1.667 0 0 1 1.758-.375 10.7 10.7 0 0 0 2.342 0.583A1.667 1.667 0 0 1 18.333 13.333z" stroke="currentColor" stroke-width="1.66667" stroke-linecap="round" stroke-linejoin="round"></path>
</svg>